<svg xmlns="http://www.w3.org/2000/svg" width="256" height="256" viewBox="0 0 80 80" fill="none">
  <rect width="80" height="80" fill="#f6f1e7"/>
  <circle cx="40" cy="40" r="36" fill="url(#g)"/>
  <ellipse cx="30" cy="36" rx="4" ry="5" fill="#fff"/><ellipse cx="31" cy="37" rx="2" ry="2.5" fill="#1e3a5f"/>
  <ellipse cx="50" cy="36" rx="4" ry="5" fill="#fff"/><ellipse cx="51" cy="37" rx="2" ry="2.5" fill="#1e3a5f"/>
  <path d="M32 48 Q40 56 48 48" stroke="#fff" stroke-width="2.5" stroke-linecap="round" fill="none"/>
  <path d="M16 36 Q16 16 40 16 Q64 16 64 36" stroke="#1e40af" stroke-width="3" fill="none"/>
  <rect x="12" y="32" width="8" height="12" rx="4" fill="#1e40af"/><rect x="60" y="32" width="8" height="12" rx="4" fill="#1e40af"/>
  <line x1="12" y1="44" x2="12" y2="50" stroke="#1e40af" stroke-width="2" stroke-linecap="round"/><circle cx="12" cy="52" r="3" fill="#1e40af"/>
  <defs><linearGradient id="g" x1="10" y1="10" x2="70" y2="70"><stop offset="0%" stop-color="#3b82f6"/><stop offset="100%" stop-color="#6366f1"/></linearGradient></defs>
</svg>
